# Blender v2.83.1 OBJ File: ''
# www.blender.org
o Plane
v -0.000000 -1.293032 -0.033770
v -0.739161 -0.413935 -0.211893
v -0.000000 -1.293032 -0.211893
v -0.739161 -0.413935 -0.033770
v -1.000000 0.706968 -0.211893
v 0.000000 0.706968 0.731557
v -1.000000 0.706968 0.320558
v -0.000000 0.706968 -0.211893
v 0.739161 -0.413935 -0.211894
v 1.000000 0.706968 -0.211894
v 0.739161 -0.413935 -0.033771
v 1.000000 0.706968 0.320557
vt 0.625000 0.125000
vt 0.375000 0.250000
vt 0.375000 0.125000
vt 0.625000 0.250000
vt 0.375000 0.500000
vt 0.875000 0.500000
vt 0.625000 0.625000
vt 0.625000 0.500000
vt 0.125000 0.500000
vt 0.375000 0.625000
vt 0.125000 0.625000
vt 0.375000 0.250000
vt 0.375000 0.500000
vt 0.625000 0.250000
vt 0.875000 0.500000
vt 0.625000 0.500000
vt 0.125000 0.500000
vt 0.875000 0.625000
vn -0.7654 -0.6436 0.0000
vn -0.9740 -0.2266 0.0000
vn -0.3553 -0.3559 0.8644
vn -0.0000 0.0000 -1.0000
vn 0.0000 1.0000 0.0000
vn 0.7654 -0.6436 -0.0000
vn 0.9740 -0.2266 -0.0000
vn 0.3553 -0.3559 0.8644
vn -0.3912 -0.3289 0.8595
vn 0.3912 -0.3289 0.8595
s 1
f 1/1/1 2/2/1 3/3/1
f 4/4/2 5/5/2 2/2/2
f 4/6/3 6/7/3 7/8/3
f 2/9/4 8/10/4 3/11/4
f 7/8/5 8/10/5 5/5/5
f 9/12/6 1/1/6 3/3/6
f 10/13/7 11/14/7 9/12/7
f 6/7/8 11/15/8 12/16/8
f 9/17/4 8/10/4 10/13/4
f 8/10/5 12/16/5 10/13/5
f 1/1/1 4/4/1 2/2/1
f 4/4/2 7/8/2 5/5/2
f 4/6/9 1/18/9 6/7/9
f 2/9/4 5/5/4 8/10/4
f 7/8/5 6/7/5 8/10/5
f 9/12/6 11/14/6 1/1/6
f 10/13/7 12/16/7 11/14/7
f 6/7/10 1/18/10 11/15/10
f 9/17/4 3/11/4 8/10/4
f 8/10/5 6/7/5 12/16/5
